<svg width="140" height="28" viewBox="0 0 140 28" fill="none" xmlns="http://www.w3.org/2000/svg">
<g clip-path="url(#clip0_4_2081)">
<path d="M49.595 19.3316H42.595L41.4284 22.2949H38.3834L44.7534 7.36157H47.8334L54.005 22.2949H50.7617L49.595 19.3316ZM48.7084 16.9982L46.1534 10.4999L43.54 17.0332L48.7084 16.9982Z" fill="#292B33"/>
<path d="M70.595 15.0267V21.6184C68.753 22.329 66.7944 22.6891 64.82 22.6801C60.025 22.6801 56.8517 19.8451 56.8517 14.7584C56.8517 9.67173 60.2 7.00007 65.0184 7.00007C66.6536 6.99523 68.2796 7.24719 69.8367 7.74673L70.28 10.5001C68.6205 9.76714 66.8321 9.3706 65.0184 9.3334C61.9967 9.3334 59.9317 10.8851 59.9317 14.6884C59.9317 18.4917 61.9617 20.2534 64.925 20.2534C65.8474 20.2688 66.7682 20.1708 67.6667 19.9617V15.0267H70.595Z" fill="#292B33"/>
<path d="M87.325 19.9149L86.9867 22.2482H75.74V7.36157H86.8117L87.1733 9.69491H78.7383V13.4516H84.9683V15.7849H78.7383V19.8566L87.325 19.9149Z" fill="#292B33"/>
<path d="M105.677 7.36157V22.2949H101.313L94.815 10.2549V22.2949H92.1667V7.36157H96.4483L103.04 19.5066V7.36157H105.677Z" fill="#292B33"/>
<path d="M118.428 6.99993C119.925 6.96244 121.415 7.21602 122.815 7.7466L123.27 10.4999C121.817 9.77764 120.225 9.37958 118.603 9.33327C115.967 9.33327 113.785 10.8849 113.785 14.7116C113.785 18.5383 115.943 20.2533 118.603 20.2533C120.211 20.2477 121.799 19.9101 123.27 19.2616L122.862 21.7349C121.47 22.3899 119.941 22.6981 118.405 22.6333C113.902 22.6333 110.705 19.8216 110.705 14.7349C110.646 13.7047 110.805 12.6736 111.172 11.7091C111.539 10.7447 112.106 9.86861 112.835 9.13837C113.564 8.40812 114.439 7.84014 115.403 7.47163C116.367 7.10311 117.398 6.94237 118.428 6.99993V6.99993Z" fill="#292B33"/>
<path d="M140 19.9149L139.662 22.2482H128.415V7.36157H139.487L139.837 9.69491H131.402V13.4516H137.667V15.7849H131.437V19.8566L140 19.9149Z" fill="#292B33"/>
<path d="M15.6217 11.8184L8.84334 0.0817479C9.08524 0.0315617 9.33132 0.0042193 9.57834 8.12575e-05H21.6533C22.2763 -0.00416333 22.8891 0.157954 23.4285 0.469694C23.9679 0.781434 24.4143 1.2315 24.7217 1.77341L27.055 5.85675H19.0517L15.6217 11.8184ZM12.1217 22.1434H4.15334L6.48667 26.2267C6.79592 26.7722 7.24601 27.2245 7.78987 27.5364C8.33374 27.8484 8.95141 28.0085 9.57834 28.0001H21.6533C21.9004 27.9973 22.1466 27.9699 22.3883 27.9184L15.6217 16.1817L12.1217 22.1434ZM30.7067 12.2267L28.35 8.05008H21.5833L25.2933 14.4784L24.0333 16.6717L19.6817 9.14675L16.8817 14.0001L24.2783 26.8334C24.4454 26.6502 24.5939 26.4509 24.7217 26.2384L30.765 15.7384C31.0687 15.2031 31.2284 14.5981 31.2284 13.9826C31.2284 13.3671 31.0687 12.7621 30.765 12.2267H30.7067ZM5.93834 13.5217L7.21 11.3284L11.55 18.8534L14.35 14.0001L7 1.16675C6.83295 1.34997 6.68445 1.54927 6.55667 1.76175L0.525002 12.2617C0.217813 12.7938 0.0560913 13.3974 0.0560913 14.0117C0.0560913 14.6261 0.217813 15.2297 0.525002 15.7617L2.89334 19.9501H9.66L5.93834 13.5217Z" fill="#00B6FF"/>
</g>
<defs>
<clipPath id="clip0_4_2081">
<rect width="140" height="28" fill="white"/>
</clipPath>
</defs>
</svg>
